<mxfile host="app.diagrams.net" agent="Mozilla/5.0 (Windows NT 10.0; Win64; x64) AppleWebKit/537.36 (KHTML, like Gecko) Chrome/129.0.0.0 Safari/537.36" version="24.7.16">
  <diagram name="Сторінка-1" id="h7f1FK6kdYlFIiJrOirw">
    <mxGraphModel dx="1450" dy="653" grid="1" gridSize="10" guides="1" tooltips="1" connect="1" arrows="1" fold="1" page="1" pageScale="1" pageWidth="827" pageHeight="1169" math="0" shadow="0">
      <root>
        <mxCell id="0" />
        <mxCell id="1" parent="0" />
        <mxCell id="tlKU7mC4kpJWROQ4X4zZ-1" value="" style="ellipse;html=1;shape=startState;" vertex="1" parent="1">
          <mxGeometry x="55" y="10" width="30" height="30" as="geometry" />
        </mxCell>
        <mxCell id="tlKU7mC4kpJWROQ4X4zZ-2" value="" style="edgeStyle=orthogonalEdgeStyle;html=1;verticalAlign=bottom;endArrow=open;endSize=8;rounded=0;entryX=0.5;entryY=0.5;entryDx=0;entryDy=-15;entryPerimeter=0;" edge="1" source="tlKU7mC4kpJWROQ4X4zZ-1" parent="1" target="tlKU7mC4kpJWROQ4X4zZ-3">
          <mxGeometry relative="1" as="geometry">
            <mxPoint x="70" y="70" as="targetPoint" />
          </mxGeometry>
        </mxCell>
        <mxCell id="tlKU7mC4kpJWROQ4X4zZ-5" value="" style="edgeStyle=orthogonalEdgeStyle;rounded=0;orthogonalLoop=1;jettySize=auto;html=1;" edge="1" parent="1" source="tlKU7mC4kpJWROQ4X4zZ-3" target="tlKU7mC4kpJWROQ4X4zZ-4">
          <mxGeometry relative="1" as="geometry" />
        </mxCell>
        <mxCell id="tlKU7mC4kpJWROQ4X4zZ-3" value="P, S, i, k" style="html=1;dashed=0;whiteSpace=wrap;shape=mxgraph.dfd.start" vertex="1" parent="1">
          <mxGeometry x="30" y="70" width="80" height="30" as="geometry" />
        </mxCell>
        <mxCell id="tlKU7mC4kpJWROQ4X4zZ-7" value="" style="edgeStyle=orthogonalEdgeStyle;rounded=0;orthogonalLoop=1;jettySize=auto;html=1;" edge="1" parent="1" source="tlKU7mC4kpJWROQ4X4zZ-4" target="tlKU7mC4kpJWROQ4X4zZ-6">
          <mxGeometry relative="1" as="geometry" />
        </mxCell>
        <mxCell id="tlKU7mC4kpJWROQ4X4zZ-4" value="S = 0" style="html=1;dashed=0;whiteSpace=wrap;shape=mxgraph.dfd.start" vertex="1" parent="1">
          <mxGeometry x="30" y="130" width="80" height="30" as="geometry" />
        </mxCell>
        <mxCell id="tlKU7mC4kpJWROQ4X4zZ-9" value="" style="edgeStyle=orthogonalEdgeStyle;rounded=0;orthogonalLoop=1;jettySize=auto;html=1;" edge="1" parent="1" source="tlKU7mC4kpJWROQ4X4zZ-6" target="tlKU7mC4kpJWROQ4X4zZ-8">
          <mxGeometry relative="1" as="geometry" />
        </mxCell>
        <mxCell id="tlKU7mC4kpJWROQ4X4zZ-6" value="i = 1" style="html=1;dashed=0;whiteSpace=wrap;shape=mxgraph.dfd.start" vertex="1" parent="1">
          <mxGeometry x="30" y="190" width="80" height="30" as="geometry" />
        </mxCell>
        <mxCell id="tlKU7mC4kpJWROQ4X4zZ-11" value="" style="edgeStyle=orthogonalEdgeStyle;rounded=0;orthogonalLoop=1;jettySize=auto;html=1;" edge="1" parent="1" source="tlKU7mC4kpJWROQ4X4zZ-8" target="tlKU7mC4kpJWROQ4X4zZ-10">
          <mxGeometry relative="1" as="geometry" />
        </mxCell>
        <mxCell id="tlKU7mC4kpJWROQ4X4zZ-8" value="" style="rhombus;whiteSpace=wrap;html=1;dashed=0;" vertex="1" parent="1">
          <mxGeometry x="52.5" y="240" width="35" height="40" as="geometry" />
        </mxCell>
        <mxCell id="tlKU7mC4kpJWROQ4X4zZ-31" value="" style="edgeStyle=orthogonalEdgeStyle;rounded=0;orthogonalLoop=1;jettySize=auto;html=1;" edge="1" parent="1" source="tlKU7mC4kpJWROQ4X4zZ-10" target="tlKU7mC4kpJWROQ4X4zZ-30">
          <mxGeometry relative="1" as="geometry" />
        </mxCell>
        <mxCell id="tlKU7mC4kpJWROQ4X4zZ-10" value="" style="rhombus;whiteSpace=wrap;html=1;dashed=0;" vertex="1" parent="1">
          <mxGeometry x="52.5" y="320" width="35" height="40" as="geometry" />
        </mxCell>
        <mxCell id="tlKU7mC4kpJWROQ4X4zZ-16" value="" style="edgeStyle=orthogonalEdgeStyle;rounded=0;orthogonalLoop=1;jettySize=auto;html=1;" edge="1" parent="1" source="tlKU7mC4kpJWROQ4X4zZ-12" target="tlKU7mC4kpJWROQ4X4zZ-15">
          <mxGeometry relative="1" as="geometry" />
        </mxCell>
        <mxCell id="tlKU7mC4kpJWROQ4X4zZ-12" value="P = 1, i = 1" style="html=1;dashed=0;whiteSpace=wrap;shape=mxgraph.dfd.start" vertex="1" parent="1">
          <mxGeometry x="225" y="325" width="80" height="30" as="geometry" />
        </mxCell>
        <mxCell id="tlKU7mC4kpJWROQ4X4zZ-13" style="edgeStyle=orthogonalEdgeStyle;rounded=0;orthogonalLoop=1;jettySize=auto;html=1;entryX=0;entryY=0.5;entryDx=0;entryDy=0;entryPerimeter=0;" edge="1" parent="1" source="tlKU7mC4kpJWROQ4X4zZ-10" target="tlKU7mC4kpJWROQ4X4zZ-12">
          <mxGeometry relative="1" as="geometry" />
        </mxCell>
        <mxCell id="tlKU7mC4kpJWROQ4X4zZ-14" value="[i &amp;lt;= 10]" style="text;html=1;align=center;verticalAlign=middle;resizable=0;points=[];autosize=1;strokeColor=none;fillColor=none;" vertex="1" parent="1">
          <mxGeometry x="85" y="310" width="70" height="30" as="geometry" />
        </mxCell>
        <mxCell id="tlKU7mC4kpJWROQ4X4zZ-18" value="" style="edgeStyle=orthogonalEdgeStyle;rounded=0;orthogonalLoop=1;jettySize=auto;html=1;" edge="1" parent="1" source="tlKU7mC4kpJWROQ4X4zZ-15" target="tlKU7mC4kpJWROQ4X4zZ-17">
          <mxGeometry relative="1" as="geometry" />
        </mxCell>
        <mxCell id="tlKU7mC4kpJWROQ4X4zZ-15" value="" style="rhombus;whiteSpace=wrap;html=1;dashed=0;" vertex="1" parent="1">
          <mxGeometry x="354" y="320" width="35" height="40" as="geometry" />
        </mxCell>
        <mxCell id="tlKU7mC4kpJWROQ4X4zZ-17" value="k++" style="html=1;dashed=0;whiteSpace=wrap;shape=mxgraph.dfd.start" vertex="1" parent="1">
          <mxGeometry x="331.5" y="400" width="80" height="30" as="geometry" />
        </mxCell>
        <mxCell id="tlKU7mC4kpJWROQ4X4zZ-20" value="" style="edgeStyle=orthogonalEdgeStyle;rounded=0;orthogonalLoop=1;jettySize=auto;html=1;" edge="1" parent="1" source="tlKU7mC4kpJWROQ4X4zZ-19" target="tlKU7mC4kpJWROQ4X4zZ-17">
          <mxGeometry relative="1" as="geometry" />
        </mxCell>
        <mxCell id="tlKU7mC4kpJWROQ4X4zZ-19" value="S += 1. / k" style="html=1;dashed=0;whiteSpace=wrap;shape=mxgraph.dfd.start" vertex="1" parent="1">
          <mxGeometry x="455" y="400" width="80" height="30" as="geometry" />
        </mxCell>
        <mxCell id="tlKU7mC4kpJWROQ4X4zZ-21" style="edgeStyle=orthogonalEdgeStyle;rounded=0;orthogonalLoop=1;jettySize=auto;html=1;entryX=0.5;entryY=0.5;entryDx=0;entryDy=-15;entryPerimeter=0;" edge="1" parent="1" source="tlKU7mC4kpJWROQ4X4zZ-15" target="tlKU7mC4kpJWROQ4X4zZ-19">
          <mxGeometry relative="1" as="geometry" />
        </mxCell>
        <mxCell id="tlKU7mC4kpJWROQ4X4zZ-22" value="[k &amp;lt;= i]" style="text;html=1;align=center;verticalAlign=middle;resizable=0;points=[];autosize=1;strokeColor=none;fillColor=none;" vertex="1" parent="1">
          <mxGeometry x="385" y="308" width="60" height="30" as="geometry" />
        </mxCell>
        <mxCell id="tlKU7mC4kpJWROQ4X4zZ-25" style="edgeStyle=orthogonalEdgeStyle;rounded=0;orthogonalLoop=1;jettySize=auto;html=1;entryX=1;entryY=0.5;entryDx=0;entryDy=0;entryPerimeter=0;" edge="1" parent="1" source="tlKU7mC4kpJWROQ4X4zZ-23" target="tlKU7mC4kpJWROQ4X4zZ-26">
          <mxGeometry relative="1" as="geometry">
            <mxPoint x="185" y="260" as="targetPoint" />
          </mxGeometry>
        </mxCell>
        <mxCell id="tlKU7mC4kpJWROQ4X4zZ-23" value="P *= i + S" style="html=1;dashed=0;whiteSpace=wrap;shape=mxgraph.dfd.start" vertex="1" parent="1">
          <mxGeometry x="225" y="245" width="80" height="30" as="geometry" />
        </mxCell>
        <mxCell id="tlKU7mC4kpJWROQ4X4zZ-24" style="edgeStyle=orthogonalEdgeStyle;rounded=0;orthogonalLoop=1;jettySize=auto;html=1;entryX=1;entryY=0.5;entryDx=0;entryDy=0;entryPerimeter=0;" edge="1" parent="1" source="tlKU7mC4kpJWROQ4X4zZ-15" target="tlKU7mC4kpJWROQ4X4zZ-23">
          <mxGeometry relative="1" as="geometry">
            <Array as="points">
              <mxPoint x="372" y="260" />
            </Array>
          </mxGeometry>
        </mxCell>
        <mxCell id="tlKU7mC4kpJWROQ4X4zZ-29" value="" style="edgeStyle=orthogonalEdgeStyle;rounded=0;orthogonalLoop=1;jettySize=auto;html=1;" edge="1" parent="1" source="tlKU7mC4kpJWROQ4X4zZ-26" target="tlKU7mC4kpJWROQ4X4zZ-8">
          <mxGeometry relative="1" as="geometry" />
        </mxCell>
        <mxCell id="tlKU7mC4kpJWROQ4X4zZ-26" value="i++" style="html=1;dashed=0;whiteSpace=wrap;shape=mxgraph.dfd.start" vertex="1" parent="1">
          <mxGeometry x="115" y="245" width="80" height="30" as="geometry" />
        </mxCell>
        <mxCell id="tlKU7mC4kpJWROQ4X4zZ-33" value="" style="edgeStyle=orthogonalEdgeStyle;rounded=0;orthogonalLoop=1;jettySize=auto;html=1;" edge="1" parent="1" source="tlKU7mC4kpJWROQ4X4zZ-30" target="tlKU7mC4kpJWROQ4X4zZ-32">
          <mxGeometry relative="1" as="geometry" />
        </mxCell>
        <mxCell id="tlKU7mC4kpJWROQ4X4zZ-30" value="&lt;font color=&quot;#007fff&quot;&gt;вивід&lt;/font&gt; S" style="html=1;dashed=0;whiteSpace=wrap;shape=mxgraph.dfd.start" vertex="1" parent="1">
          <mxGeometry x="30" y="390" width="80" height="30" as="geometry" />
        </mxCell>
        <mxCell id="tlKU7mC4kpJWROQ4X4zZ-35" value="" style="edgeStyle=orthogonalEdgeStyle;rounded=0;orthogonalLoop=1;jettySize=auto;html=1;" edge="1" parent="1" source="tlKU7mC4kpJWROQ4X4zZ-32" target="tlKU7mC4kpJWROQ4X4zZ-34">
          <mxGeometry relative="1" as="geometry" />
        </mxCell>
        <mxCell id="tlKU7mC4kpJWROQ4X4zZ-32" value="S = 0" style="html=1;dashed=0;whiteSpace=wrap;shape=mxgraph.dfd.start" vertex="1" parent="1">
          <mxGeometry x="30" y="450" width="80" height="30" as="geometry" />
        </mxCell>
        <mxCell id="tlKU7mC4kpJWROQ4X4zZ-37" value="" style="edgeStyle=orthogonalEdgeStyle;rounded=0;orthogonalLoop=1;jettySize=auto;html=1;" edge="1" parent="1" source="tlKU7mC4kpJWROQ4X4zZ-34" target="tlKU7mC4kpJWROQ4X4zZ-36">
          <mxGeometry relative="1" as="geometry" />
        </mxCell>
        <mxCell id="tlKU7mC4kpJWROQ4X4zZ-34" value="i = 1" style="html=1;dashed=0;whiteSpace=wrap;shape=mxgraph.dfd.start" vertex="1" parent="1">
          <mxGeometry x="30" y="510" width="80" height="30" as="geometry" />
        </mxCell>
        <mxCell id="tlKU7mC4kpJWROQ4X4zZ-39" value="" style="edgeStyle=orthogonalEdgeStyle;rounded=0;orthogonalLoop=1;jettySize=auto;html=1;" edge="1" parent="1" source="tlKU7mC4kpJWROQ4X4zZ-36" target="tlKU7mC4kpJWROQ4X4zZ-38">
          <mxGeometry relative="1" as="geometry" />
        </mxCell>
        <mxCell id="tlKU7mC4kpJWROQ4X4zZ-36" value="" style="rhombus;whiteSpace=wrap;html=1;dashed=0;" vertex="1" parent="1">
          <mxGeometry x="52.5" y="560" width="35" height="40" as="geometry" />
        </mxCell>
        <mxCell id="tlKU7mC4kpJWROQ4X4zZ-41" value="" style="edgeStyle=orthogonalEdgeStyle;rounded=0;orthogonalLoop=1;jettySize=auto;html=1;" edge="1" parent="1" source="tlKU7mC4kpJWROQ4X4zZ-38" target="tlKU7mC4kpJWROQ4X4zZ-40">
          <mxGeometry relative="1" as="geometry" />
        </mxCell>
        <mxCell id="tlKU7mC4kpJWROQ4X4zZ-38" value="P = 1, i = 1" style="html=1;dashed=0;whiteSpace=wrap;shape=mxgraph.dfd.start" vertex="1" parent="1">
          <mxGeometry x="30" y="620" width="80" height="30" as="geometry" />
        </mxCell>
        <mxCell id="tlKU7mC4kpJWROQ4X4zZ-43" value="" style="edgeStyle=orthogonalEdgeStyle;rounded=0;orthogonalLoop=1;jettySize=auto;html=1;" edge="1" parent="1" source="tlKU7mC4kpJWROQ4X4zZ-40" target="tlKU7mC4kpJWROQ4X4zZ-42">
          <mxGeometry relative="1" as="geometry" />
        </mxCell>
        <mxCell id="tlKU7mC4kpJWROQ4X4zZ-40" value="" style="rhombus;whiteSpace=wrap;html=1;dashed=0;" vertex="1" parent="1">
          <mxGeometry x="52.5" y="680" width="35" height="40" as="geometry" />
        </mxCell>
        <mxCell id="tlKU7mC4kpJWROQ4X4zZ-45" value="" style="edgeStyle=orthogonalEdgeStyle;rounded=0;orthogonalLoop=1;jettySize=auto;html=1;" edge="1" parent="1" source="tlKU7mC4kpJWROQ4X4zZ-42" target="tlKU7mC4kpJWROQ4X4zZ-44">
          <mxGeometry relative="1" as="geometry" />
        </mxCell>
        <mxCell id="tlKU7mC4kpJWROQ4X4zZ-42" value="S += 1. / k" style="html=1;dashed=0;whiteSpace=wrap;shape=mxgraph.dfd.start" vertex="1" parent="1">
          <mxGeometry x="30" y="750" width="80" height="30" as="geometry" />
        </mxCell>
        <mxCell id="tlKU7mC4kpJWROQ4X4zZ-47" value="" style="edgeStyle=orthogonalEdgeStyle;rounded=0;orthogonalLoop=1;jettySize=auto;html=1;" edge="1" parent="1" source="tlKU7mC4kpJWROQ4X4zZ-44" target="tlKU7mC4kpJWROQ4X4zZ-46">
          <mxGeometry relative="1" as="geometry" />
        </mxCell>
        <mxCell id="tlKU7mC4kpJWROQ4X4zZ-44" value="k++" style="html=1;dashed=0;whiteSpace=wrap;shape=mxgraph.dfd.start" vertex="1" parent="1">
          <mxGeometry x="30" y="800" width="80" height="30" as="geometry" />
        </mxCell>
        <mxCell id="tlKU7mC4kpJWROQ4X4zZ-48" style="edgeStyle=orthogonalEdgeStyle;rounded=0;orthogonalLoop=1;jettySize=auto;html=1;entryX=1;entryY=0.5;entryDx=0;entryDy=0;" edge="1" parent="1" source="tlKU7mC4kpJWROQ4X4zZ-46" target="tlKU7mC4kpJWROQ4X4zZ-40">
          <mxGeometry relative="1" as="geometry">
            <Array as="points">
              <mxPoint x="145" y="870" />
              <mxPoint x="145" y="700" />
            </Array>
          </mxGeometry>
        </mxCell>
        <mxCell id="tlKU7mC4kpJWROQ4X4zZ-51" value="" style="edgeStyle=orthogonalEdgeStyle;rounded=0;orthogonalLoop=1;jettySize=auto;html=1;" edge="1" parent="1" source="tlKU7mC4kpJWROQ4X4zZ-46" target="tlKU7mC4kpJWROQ4X4zZ-50">
          <mxGeometry relative="1" as="geometry" />
        </mxCell>
        <mxCell id="tlKU7mC4kpJWROQ4X4zZ-46" value="" style="rhombus;whiteSpace=wrap;html=1;dashed=0;" vertex="1" parent="1">
          <mxGeometry x="52.5" y="850" width="35" height="40" as="geometry" />
        </mxCell>
        <mxCell id="tlKU7mC4kpJWROQ4X4zZ-49" value="[k &amp;lt;= i]" style="text;html=1;align=center;verticalAlign=middle;resizable=0;points=[];autosize=1;strokeColor=none;fillColor=none;" vertex="1" parent="1">
          <mxGeometry x="85" y="840" width="60" height="30" as="geometry" />
        </mxCell>
        <mxCell id="tlKU7mC4kpJWROQ4X4zZ-53" value="" style="edgeStyle=orthogonalEdgeStyle;rounded=0;orthogonalLoop=1;jettySize=auto;html=1;" edge="1" parent="1" source="tlKU7mC4kpJWROQ4X4zZ-50" target="tlKU7mC4kpJWROQ4X4zZ-52">
          <mxGeometry relative="1" as="geometry" />
        </mxCell>
        <mxCell id="tlKU7mC4kpJWROQ4X4zZ-50" value="P = 1, i = 1" style="html=1;dashed=0;whiteSpace=wrap;shape=mxgraph.dfd.start" vertex="1" parent="1">
          <mxGeometry x="30" y="910" width="80" height="30" as="geometry" />
        </mxCell>
        <mxCell id="tlKU7mC4kpJWROQ4X4zZ-55" value="" style="edgeStyle=orthogonalEdgeStyle;rounded=0;orthogonalLoop=1;jettySize=auto;html=1;" edge="1" parent="1" source="tlKU7mC4kpJWROQ4X4zZ-52" target="tlKU7mC4kpJWROQ4X4zZ-54">
          <mxGeometry relative="1" as="geometry" />
        </mxCell>
        <mxCell id="tlKU7mC4kpJWROQ4X4zZ-52" value="i++" style="html=1;dashed=0;whiteSpace=wrap;shape=mxgraph.dfd.start" vertex="1" parent="1">
          <mxGeometry x="30" y="960" width="80" height="30" as="geometry" />
        </mxCell>
        <mxCell id="tlKU7mC4kpJWROQ4X4zZ-56" style="edgeStyle=orthogonalEdgeStyle;rounded=0;orthogonalLoop=1;jettySize=auto;html=1;entryX=1;entryY=0.5;entryDx=0;entryDy=0;" edge="1" parent="1" source="tlKU7mC4kpJWROQ4X4zZ-54" target="tlKU7mC4kpJWROQ4X4zZ-36">
          <mxGeometry relative="1" as="geometry">
            <Array as="points">
              <mxPoint x="175" y="1030" />
              <mxPoint x="175" y="580" />
            </Array>
          </mxGeometry>
        </mxCell>
        <mxCell id="tlKU7mC4kpJWROQ4X4zZ-59" value="" style="edgeStyle=orthogonalEdgeStyle;rounded=0;orthogonalLoop=1;jettySize=auto;html=1;" edge="1" parent="1" source="tlKU7mC4kpJWROQ4X4zZ-54" target="tlKU7mC4kpJWROQ4X4zZ-58">
          <mxGeometry relative="1" as="geometry" />
        </mxCell>
        <mxCell id="tlKU7mC4kpJWROQ4X4zZ-54" value="" style="rhombus;whiteSpace=wrap;html=1;dashed=0;" vertex="1" parent="1">
          <mxGeometry x="52.5" y="1010" width="35" height="40" as="geometry" />
        </mxCell>
        <mxCell id="tlKU7mC4kpJWROQ4X4zZ-57" value="[i &amp;lt;= 10]" style="text;html=1;align=center;verticalAlign=middle;resizable=0;points=[];autosize=1;strokeColor=none;fillColor=none;" vertex="1" parent="1">
          <mxGeometry x="87.5" y="1000" width="70" height="30" as="geometry" />
        </mxCell>
        <mxCell id="tlKU7mC4kpJWROQ4X4zZ-61" value="" style="edgeStyle=orthogonalEdgeStyle;rounded=0;orthogonalLoop=1;jettySize=auto;html=1;" edge="1" parent="1" source="tlKU7mC4kpJWROQ4X4zZ-58" target="tlKU7mC4kpJWROQ4X4zZ-60">
          <mxGeometry relative="1" as="geometry" />
        </mxCell>
        <mxCell id="tlKU7mC4kpJWROQ4X4zZ-58" value="&lt;font color=&quot;#007fff&quot;&gt;вивід&lt;/font&gt; S" style="html=1;dashed=0;whiteSpace=wrap;shape=mxgraph.dfd.start" vertex="1" parent="1">
          <mxGeometry x="30" y="1080" width="80" height="30" as="geometry" />
        </mxCell>
        <mxCell id="tlKU7mC4kpJWROQ4X4zZ-60" value="1" style="ellipse;whiteSpace=wrap;html=1;aspect=fixed;" vertex="1" parent="1">
          <mxGeometry x="55" y="1130" width="30" height="30" as="geometry" />
        </mxCell>
        <mxCell id="tlKU7mC4kpJWROQ4X4zZ-62" value="1" style="ellipse;whiteSpace=wrap;html=1;aspect=fixed;" vertex="1" parent="1">
          <mxGeometry x="620" y="20" width="40" height="40" as="geometry" />
        </mxCell>
        <mxCell id="tlKU7mC4kpJWROQ4X4zZ-63" value="" style="edgeStyle=orthogonalEdgeStyle;rounded=0;orthogonalLoop=1;jettySize=auto;html=1;" edge="1" source="tlKU7mC4kpJWROQ4X4zZ-64" target="tlKU7mC4kpJWROQ4X4zZ-66" parent="1">
          <mxGeometry relative="1" as="geometry" />
        </mxCell>
        <mxCell id="tlKU7mC4kpJWROQ4X4zZ-64" value="S = 0" style="html=1;dashed=0;whiteSpace=wrap;shape=mxgraph.dfd.start" vertex="1" parent="1">
          <mxGeometry x="600" y="85" width="80" height="30" as="geometry" />
        </mxCell>
        <mxCell id="tlKU7mC4kpJWROQ4X4zZ-65" value="" style="edgeStyle=orthogonalEdgeStyle;rounded=0;orthogonalLoop=1;jettySize=auto;html=1;" edge="1" source="tlKU7mC4kpJWROQ4X4zZ-66" target="tlKU7mC4kpJWROQ4X4zZ-68" parent="1">
          <mxGeometry relative="1" as="geometry" />
        </mxCell>
        <mxCell id="tlKU7mC4kpJWROQ4X4zZ-66" value="i = 1" style="html=1;dashed=0;whiteSpace=wrap;shape=mxgraph.dfd.start" vertex="1" parent="1">
          <mxGeometry x="600" y="145" width="80" height="30" as="geometry" />
        </mxCell>
        <mxCell id="tlKU7mC4kpJWROQ4X4zZ-67" value="" style="edgeStyle=orthogonalEdgeStyle;rounded=0;orthogonalLoop=1;jettySize=auto;html=1;" edge="1" source="tlKU7mC4kpJWROQ4X4zZ-68" target="tlKU7mC4kpJWROQ4X4zZ-70" parent="1">
          <mxGeometry relative="1" as="geometry" />
        </mxCell>
        <mxCell id="tlKU7mC4kpJWROQ4X4zZ-68" value="" style="rhombus;whiteSpace=wrap;html=1;dashed=0;" vertex="1" parent="1">
          <mxGeometry x="622.5" y="195" width="35" height="40" as="geometry" />
        </mxCell>
        <mxCell id="tlKU7mC4kpJWROQ4X4zZ-69" value="" style="edgeStyle=orthogonalEdgeStyle;rounded=0;orthogonalLoop=1;jettySize=auto;html=1;" edge="1" source="tlKU7mC4kpJWROQ4X4zZ-70" target="tlKU7mC4kpJWROQ4X4zZ-88" parent="1">
          <mxGeometry relative="1" as="geometry" />
        </mxCell>
        <mxCell id="tlKU7mC4kpJWROQ4X4zZ-70" value="" style="rhombus;whiteSpace=wrap;html=1;dashed=0;" vertex="1" parent="1">
          <mxGeometry x="622.5" y="275" width="35" height="40" as="geometry" />
        </mxCell>
        <mxCell id="tlKU7mC4kpJWROQ4X4zZ-71" value="" style="edgeStyle=orthogonalEdgeStyle;rounded=0;orthogonalLoop=1;jettySize=auto;html=1;" edge="1" source="tlKU7mC4kpJWROQ4X4zZ-72" target="tlKU7mC4kpJWROQ4X4zZ-76" parent="1">
          <mxGeometry relative="1" as="geometry" />
        </mxCell>
        <mxCell id="tlKU7mC4kpJWROQ4X4zZ-72" value="P = 1, i = 1" style="html=1;dashed=0;whiteSpace=wrap;shape=mxgraph.dfd.start" vertex="1" parent="1">
          <mxGeometry x="795" y="280" width="80" height="30" as="geometry" />
        </mxCell>
        <mxCell id="tlKU7mC4kpJWROQ4X4zZ-73" style="edgeStyle=orthogonalEdgeStyle;rounded=0;orthogonalLoop=1;jettySize=auto;html=1;entryX=0;entryY=0.5;entryDx=0;entryDy=0;entryPerimeter=0;" edge="1" source="tlKU7mC4kpJWROQ4X4zZ-70" target="tlKU7mC4kpJWROQ4X4zZ-72" parent="1">
          <mxGeometry relative="1" as="geometry" />
        </mxCell>
        <mxCell id="tlKU7mC4kpJWROQ4X4zZ-74" value="[i &amp;lt;= 10]" style="text;html=1;align=center;verticalAlign=middle;resizable=0;points=[];autosize=1;strokeColor=none;fillColor=none;" vertex="1" parent="1">
          <mxGeometry x="655" y="265" width="70" height="30" as="geometry" />
        </mxCell>
        <mxCell id="tlKU7mC4kpJWROQ4X4zZ-75" value="" style="edgeStyle=orthogonalEdgeStyle;rounded=0;orthogonalLoop=1;jettySize=auto;html=1;" edge="1" source="tlKU7mC4kpJWROQ4X4zZ-76" target="tlKU7mC4kpJWROQ4X4zZ-77" parent="1">
          <mxGeometry relative="1" as="geometry" />
        </mxCell>
        <mxCell id="tlKU7mC4kpJWROQ4X4zZ-76" value="" style="rhombus;whiteSpace=wrap;html=1;dashed=0;" vertex="1" parent="1">
          <mxGeometry x="924" y="275" width="35" height="40" as="geometry" />
        </mxCell>
        <mxCell id="tlKU7mC4kpJWROQ4X4zZ-77" value="k++" style="html=1;dashed=0;whiteSpace=wrap;shape=mxgraph.dfd.start" vertex="1" parent="1">
          <mxGeometry x="901.5" y="355" width="80" height="30" as="geometry" />
        </mxCell>
        <mxCell id="tlKU7mC4kpJWROQ4X4zZ-78" value="" style="edgeStyle=orthogonalEdgeStyle;rounded=0;orthogonalLoop=1;jettySize=auto;html=1;" edge="1" source="tlKU7mC4kpJWROQ4X4zZ-79" target="tlKU7mC4kpJWROQ4X4zZ-77" parent="1">
          <mxGeometry relative="1" as="geometry" />
        </mxCell>
        <mxCell id="tlKU7mC4kpJWROQ4X4zZ-79" value="S += 1. / k" style="html=1;dashed=0;whiteSpace=wrap;shape=mxgraph.dfd.start" vertex="1" parent="1">
          <mxGeometry x="1025" y="355" width="80" height="30" as="geometry" />
        </mxCell>
        <mxCell id="tlKU7mC4kpJWROQ4X4zZ-80" style="edgeStyle=orthogonalEdgeStyle;rounded=0;orthogonalLoop=1;jettySize=auto;html=1;entryX=0.5;entryY=0.5;entryDx=0;entryDy=-15;entryPerimeter=0;" edge="1" source="tlKU7mC4kpJWROQ4X4zZ-76" target="tlKU7mC4kpJWROQ4X4zZ-79" parent="1">
          <mxGeometry relative="1" as="geometry" />
        </mxCell>
        <mxCell id="tlKU7mC4kpJWROQ4X4zZ-81" value="[k &amp;lt;= i]" style="text;html=1;align=center;verticalAlign=middle;resizable=0;points=[];autosize=1;strokeColor=none;fillColor=none;" vertex="1" parent="1">
          <mxGeometry x="955" y="263" width="60" height="30" as="geometry" />
        </mxCell>
        <mxCell id="tlKU7mC4kpJWROQ4X4zZ-82" style="edgeStyle=orthogonalEdgeStyle;rounded=0;orthogonalLoop=1;jettySize=auto;html=1;entryX=1;entryY=0.5;entryDx=0;entryDy=0;entryPerimeter=0;" edge="1" source="tlKU7mC4kpJWROQ4X4zZ-83" target="tlKU7mC4kpJWROQ4X4zZ-86" parent="1">
          <mxGeometry relative="1" as="geometry">
            <mxPoint x="755" y="215" as="targetPoint" />
          </mxGeometry>
        </mxCell>
        <mxCell id="tlKU7mC4kpJWROQ4X4zZ-83" value="P *= i + S" style="html=1;dashed=0;whiteSpace=wrap;shape=mxgraph.dfd.start" vertex="1" parent="1">
          <mxGeometry x="795" y="200" width="80" height="30" as="geometry" />
        </mxCell>
        <mxCell id="tlKU7mC4kpJWROQ4X4zZ-84" style="edgeStyle=orthogonalEdgeStyle;rounded=0;orthogonalLoop=1;jettySize=auto;html=1;entryX=1;entryY=0.5;entryDx=0;entryDy=0;entryPerimeter=0;" edge="1" source="tlKU7mC4kpJWROQ4X4zZ-76" target="tlKU7mC4kpJWROQ4X4zZ-83" parent="1">
          <mxGeometry relative="1" as="geometry">
            <Array as="points">
              <mxPoint x="942" y="215" />
            </Array>
          </mxGeometry>
        </mxCell>
        <mxCell id="tlKU7mC4kpJWROQ4X4zZ-85" value="" style="edgeStyle=orthogonalEdgeStyle;rounded=0;orthogonalLoop=1;jettySize=auto;html=1;" edge="1" source="tlKU7mC4kpJWROQ4X4zZ-86" target="tlKU7mC4kpJWROQ4X4zZ-68" parent="1">
          <mxGeometry relative="1" as="geometry" />
        </mxCell>
        <mxCell id="tlKU7mC4kpJWROQ4X4zZ-86" value="i++" style="html=1;dashed=0;whiteSpace=wrap;shape=mxgraph.dfd.start" vertex="1" parent="1">
          <mxGeometry x="685" y="200" width="80" height="30" as="geometry" />
        </mxCell>
        <mxCell id="tlKU7mC4kpJWROQ4X4zZ-87" value="" style="edgeStyle=orthogonalEdgeStyle;rounded=0;orthogonalLoop=1;jettySize=auto;html=1;" edge="1" source="tlKU7mC4kpJWROQ4X4zZ-88" target="tlKU7mC4kpJWROQ4X4zZ-89" parent="1">
          <mxGeometry relative="1" as="geometry" />
        </mxCell>
        <mxCell id="tlKU7mC4kpJWROQ4X4zZ-88" value="&lt;font color=&quot;#007fff&quot;&gt;вивід&lt;/font&gt; S" style="html=1;dashed=0;whiteSpace=wrap;shape=mxgraph.dfd.start" vertex="1" parent="1">
          <mxGeometry x="600" y="345" width="80" height="30" as="geometry" />
        </mxCell>
        <mxCell id="tlKU7mC4kpJWROQ4X4zZ-94" value="" style="edgeStyle=orthogonalEdgeStyle;rounded=0;orthogonalLoop=1;jettySize=auto;html=1;" edge="1" parent="1" source="tlKU7mC4kpJWROQ4X4zZ-89" target="tlKU7mC4kpJWROQ4X4zZ-93">
          <mxGeometry relative="1" as="geometry" />
        </mxCell>
        <mxCell id="tlKU7mC4kpJWROQ4X4zZ-89" value="S = 0" style="html=1;dashed=0;whiteSpace=wrap;shape=mxgraph.dfd.start" vertex="1" parent="1">
          <mxGeometry x="600" y="405" width="80" height="30" as="geometry" />
        </mxCell>
        <mxCell id="tlKU7mC4kpJWROQ4X4zZ-92" style="edgeStyle=orthogonalEdgeStyle;rounded=0;orthogonalLoop=1;jettySize=auto;html=1;entryX=0.5;entryY=0.5;entryDx=0;entryDy=-15;entryPerimeter=0;" edge="1" parent="1" source="tlKU7mC4kpJWROQ4X4zZ-62" target="tlKU7mC4kpJWROQ4X4zZ-64">
          <mxGeometry relative="1" as="geometry" />
        </mxCell>
        <mxCell id="tlKU7mC4kpJWROQ4X4zZ-118" style="edgeStyle=orthogonalEdgeStyle;rounded=0;orthogonalLoop=1;jettySize=auto;html=1;entryX=0.5;entryY=0;entryDx=0;entryDy=0;" edge="1" parent="1" source="tlKU7mC4kpJWROQ4X4zZ-93" target="tlKU7mC4kpJWROQ4X4zZ-97">
          <mxGeometry relative="1" as="geometry" />
        </mxCell>
        <mxCell id="tlKU7mC4kpJWROQ4X4zZ-93" value="i = 10" style="html=1;dashed=0;whiteSpace=wrap;shape=mxgraph.dfd.start" vertex="1" parent="1">
          <mxGeometry x="600" y="470" width="80" height="30" as="geometry" />
        </mxCell>
        <mxCell id="tlKU7mC4kpJWROQ4X4zZ-96" value="" style="edgeStyle=orthogonalEdgeStyle;rounded=0;orthogonalLoop=1;jettySize=auto;html=1;" edge="1" source="tlKU7mC4kpJWROQ4X4zZ-97" target="tlKU7mC4kpJWROQ4X4zZ-99" parent="1">
          <mxGeometry relative="1" as="geometry" />
        </mxCell>
        <mxCell id="tlKU7mC4kpJWROQ4X4zZ-97" value="" style="rhombus;whiteSpace=wrap;html=1;dashed=0;" vertex="1" parent="1">
          <mxGeometry x="622.5" y="520" width="35" height="40" as="geometry" />
        </mxCell>
        <mxCell id="tlKU7mC4kpJWROQ4X4zZ-98" value="" style="edgeStyle=orthogonalEdgeStyle;rounded=0;orthogonalLoop=1;jettySize=auto;html=1;" edge="1" source="tlKU7mC4kpJWROQ4X4zZ-99" target="tlKU7mC4kpJWROQ4X4zZ-116" parent="1">
          <mxGeometry relative="1" as="geometry" />
        </mxCell>
        <mxCell id="tlKU7mC4kpJWROQ4X4zZ-99" value="" style="rhombus;whiteSpace=wrap;html=1;dashed=0;" vertex="1" parent="1">
          <mxGeometry x="622.5" y="600" width="35" height="40" as="geometry" />
        </mxCell>
        <mxCell id="tlKU7mC4kpJWROQ4X4zZ-100" value="" style="edgeStyle=orthogonalEdgeStyle;rounded=0;orthogonalLoop=1;jettySize=auto;html=1;" edge="1" source="tlKU7mC4kpJWROQ4X4zZ-101" target="tlKU7mC4kpJWROQ4X4zZ-105" parent="1">
          <mxGeometry relative="1" as="geometry" />
        </mxCell>
        <mxCell id="tlKU7mC4kpJWROQ4X4zZ-101" value="P = 1, k = i" style="html=1;dashed=0;whiteSpace=wrap;shape=mxgraph.dfd.start" vertex="1" parent="1">
          <mxGeometry x="795" y="605" width="80" height="30" as="geometry" />
        </mxCell>
        <mxCell id="tlKU7mC4kpJWROQ4X4zZ-102" style="edgeStyle=orthogonalEdgeStyle;rounded=0;orthogonalLoop=1;jettySize=auto;html=1;entryX=0;entryY=0.5;entryDx=0;entryDy=0;entryPerimeter=0;" edge="1" source="tlKU7mC4kpJWROQ4X4zZ-99" target="tlKU7mC4kpJWROQ4X4zZ-101" parent="1">
          <mxGeometry relative="1" as="geometry" />
        </mxCell>
        <mxCell id="tlKU7mC4kpJWROQ4X4zZ-103" value="[i &amp;gt;= 1]" style="text;html=1;align=center;verticalAlign=middle;resizable=0;points=[];autosize=1;strokeColor=none;fillColor=none;" vertex="1" parent="1">
          <mxGeometry x="660" y="590" width="60" height="30" as="geometry" />
        </mxCell>
        <mxCell id="tlKU7mC4kpJWROQ4X4zZ-104" value="" style="edgeStyle=orthogonalEdgeStyle;rounded=0;orthogonalLoop=1;jettySize=auto;html=1;" edge="1" source="tlKU7mC4kpJWROQ4X4zZ-105" target="tlKU7mC4kpJWROQ4X4zZ-106" parent="1">
          <mxGeometry relative="1" as="geometry" />
        </mxCell>
        <mxCell id="tlKU7mC4kpJWROQ4X4zZ-105" value="" style="rhombus;whiteSpace=wrap;html=1;dashed=0;" vertex="1" parent="1">
          <mxGeometry x="924" y="600" width="35" height="40" as="geometry" />
        </mxCell>
        <mxCell id="tlKU7mC4kpJWROQ4X4zZ-106" value="k--" style="html=1;dashed=0;whiteSpace=wrap;shape=mxgraph.dfd.start" vertex="1" parent="1">
          <mxGeometry x="901.5" y="680" width="80" height="30" as="geometry" />
        </mxCell>
        <mxCell id="tlKU7mC4kpJWROQ4X4zZ-107" value="" style="edgeStyle=orthogonalEdgeStyle;rounded=0;orthogonalLoop=1;jettySize=auto;html=1;" edge="1" source="tlKU7mC4kpJWROQ4X4zZ-108" target="tlKU7mC4kpJWROQ4X4zZ-106" parent="1">
          <mxGeometry relative="1" as="geometry" />
        </mxCell>
        <mxCell id="tlKU7mC4kpJWROQ4X4zZ-108" value="S += 1. / k" style="html=1;dashed=0;whiteSpace=wrap;shape=mxgraph.dfd.start" vertex="1" parent="1">
          <mxGeometry x="1025" y="680" width="80" height="30" as="geometry" />
        </mxCell>
        <mxCell id="tlKU7mC4kpJWROQ4X4zZ-109" style="edgeStyle=orthogonalEdgeStyle;rounded=0;orthogonalLoop=1;jettySize=auto;html=1;entryX=0.5;entryY=0.5;entryDx=0;entryDy=-15;entryPerimeter=0;" edge="1" source="tlKU7mC4kpJWROQ4X4zZ-105" target="tlKU7mC4kpJWROQ4X4zZ-108" parent="1">
          <mxGeometry relative="1" as="geometry" />
        </mxCell>
        <mxCell id="tlKU7mC4kpJWROQ4X4zZ-110" value="[k &amp;lt;= i]" style="text;html=1;align=center;verticalAlign=middle;resizable=0;points=[];autosize=1;strokeColor=none;fillColor=none;" vertex="1" parent="1">
          <mxGeometry x="955" y="588" width="60" height="30" as="geometry" />
        </mxCell>
        <mxCell id="tlKU7mC4kpJWROQ4X4zZ-111" style="edgeStyle=orthogonalEdgeStyle;rounded=0;orthogonalLoop=1;jettySize=auto;html=1;entryX=1;entryY=0.5;entryDx=0;entryDy=0;entryPerimeter=0;" edge="1" source="tlKU7mC4kpJWROQ4X4zZ-112" target="tlKU7mC4kpJWROQ4X4zZ-115" parent="1">
          <mxGeometry relative="1" as="geometry">
            <mxPoint x="755" y="540" as="targetPoint" />
          </mxGeometry>
        </mxCell>
        <mxCell id="tlKU7mC4kpJWROQ4X4zZ-112" value="P *= i + S" style="html=1;dashed=0;whiteSpace=wrap;shape=mxgraph.dfd.start" vertex="1" parent="1">
          <mxGeometry x="795" y="525" width="80" height="30" as="geometry" />
        </mxCell>
        <mxCell id="tlKU7mC4kpJWROQ4X4zZ-113" style="edgeStyle=orthogonalEdgeStyle;rounded=0;orthogonalLoop=1;jettySize=auto;html=1;entryX=1;entryY=0.5;entryDx=0;entryDy=0;entryPerimeter=0;" edge="1" source="tlKU7mC4kpJWROQ4X4zZ-105" target="tlKU7mC4kpJWROQ4X4zZ-112" parent="1">
          <mxGeometry relative="1" as="geometry">
            <Array as="points">
              <mxPoint x="942" y="540" />
            </Array>
          </mxGeometry>
        </mxCell>
        <mxCell id="tlKU7mC4kpJWROQ4X4zZ-114" value="" style="edgeStyle=orthogonalEdgeStyle;rounded=0;orthogonalLoop=1;jettySize=auto;html=1;" edge="1" source="tlKU7mC4kpJWROQ4X4zZ-115" target="tlKU7mC4kpJWROQ4X4zZ-97" parent="1">
          <mxGeometry relative="1" as="geometry" />
        </mxCell>
        <mxCell id="tlKU7mC4kpJWROQ4X4zZ-115" value="i--" style="html=1;dashed=0;whiteSpace=wrap;shape=mxgraph.dfd.start" vertex="1" parent="1">
          <mxGeometry x="685" y="525" width="80" height="30" as="geometry" />
        </mxCell>
        <mxCell id="tlKU7mC4kpJWROQ4X4zZ-120" value="" style="edgeStyle=orthogonalEdgeStyle;rounded=0;orthogonalLoop=1;jettySize=auto;html=1;" edge="1" parent="1" source="tlKU7mC4kpJWROQ4X4zZ-116" target="tlKU7mC4kpJWROQ4X4zZ-119">
          <mxGeometry relative="1" as="geometry" />
        </mxCell>
        <mxCell id="tlKU7mC4kpJWROQ4X4zZ-116" value="&lt;font color=&quot;#007fff&quot;&gt;вивід&lt;/font&gt; S" style="html=1;dashed=0;whiteSpace=wrap;shape=mxgraph.dfd.start" vertex="1" parent="1">
          <mxGeometry x="600" y="670" width="80" height="30" as="geometry" />
        </mxCell>
        <mxCell id="tlKU7mC4kpJWROQ4X4zZ-119" value="" style="ellipse;html=1;shape=endState;" vertex="1" parent="1">
          <mxGeometry x="625" y="730" width="30" height="30" as="geometry" />
        </mxCell>
      </root>
    </mxGraphModel>
  </diagram>
</mxfile>
